<?xml version="1.0" encoding="UTF-8" standalone="no"?>
<!-- Created with Inkscape (http://www.inkscape.org/) -->

<svg
   width="61.568176mm"
   height="54.021912mm"
   viewBox="0 0 61.568176 54.021912"
   version="1.1"
   id="svg1"
   xml:space="preserve"
   xmlns="http://www.w3.org/2000/svg"
   xmlns:svg="http://www.w3.org/2000/svg"><defs
     id="defs1" /><g
     id="layer1"
     transform="translate(-67.029359,-55.839117)"><g
       id="g8"><text
         xml:space="preserve"
         style="font-style:normal;font-variant:normal;font-weight:normal;font-stretch:normal;font-size:9.87778px;font-family:'NS Champtone Serif';-inkscape-font-specification:'NS Champtone Serif';fill:#000000;stroke-width:0.264583"
         x="66.831802"
         y="109.72274"
         id="text3"><tspan
           id="tspan3"
           style="font-style:normal;font-variant:normal;font-weight:normal;font-stretch:normal;font-size:9.87778px;font-family:'Alfa Slab One';-inkscape-font-specification:'Alfa Slab One';fill:#ffffff;stroke-width:0.264583"
           x="66.831802"
           y="109.72274">FRONTERA</tspan></text><g
         id="g7"><text
           xml:space="preserve"
           style="font-size:29.0637px;fill:#999999;stroke-width:0.544943"
           x="94.935638"
           y="79.060112"
           id="text1"><tspan
             id="tspan1"
             style="font-style:normal;font-variant:normal;font-weight:normal;font-stretch:normal;font-size:29.0637px;font-family:'Alfa Slab One';-inkscape-font-specification:'Alfa Slab One';text-align:center;text-anchor:middle;fill:#999999;stroke-width:0.544943"
             x="94.935638"
             y="79.060112">YO</tspan><tspan
             style="font-style:normal;font-variant:normal;font-weight:normal;font-stretch:normal;font-size:29.0637px;font-family:'Alfa Slab One';-inkscape-font-specification:'Alfa Slab One';text-align:center;text-anchor:middle;fill:#999999;stroke-width:0.544943"
             x="94.935638"
             y="116.27832"
             id="tspan2" /></text><text
           xml:space="preserve"
           style="font-style:normal;font-variant:normal;font-weight:normal;font-stretch:normal;font-size:26.8853px;font-family:'Alfa Slab One';-inkscape-font-specification:'Alfa Slab One';text-align:center;text-anchor:middle;fill:#999999;stroke-width:0.5041"
           x="96.639786"
           y="99.31617"
           id="text4"><tspan
             id="tspan4"
             style="fill:#999999;stroke-width:0.5041"
             x="96.639786"
             y="99.31617">SOY</tspan></text><g
           id="g6"><text
             xml:space="preserve"
             style="font-size:29.0637px;fill:#ffffff;stroke-width:0.544943"
             x="96.493233"
             y="78.857567"
             id="text1-0"><tspan
               id="tspan1-2"
               style="font-style:normal;font-variant:normal;font-weight:normal;font-stretch:normal;font-size:29.0637px;font-family:'Alfa Slab One';-inkscape-font-specification:'Alfa Slab One';text-align:center;text-anchor:middle;fill:#ffffff;stroke-width:0.544943"
               x="96.493233"
               y="78.857567">YO</tspan><tspan
               style="font-style:normal;font-variant:normal;font-weight:normal;font-stretch:normal;font-size:29.0637px;font-family:'Alfa Slab One';-inkscape-font-specification:'Alfa Slab One';text-align:center;text-anchor:middle;fill:#ffffff;stroke-width:0.544943"
               x="96.493233"
               y="116.07578"
               id="tspan2-8" /></text><text
             xml:space="preserve"
             style="font-style:normal;font-variant:normal;font-weight:normal;font-stretch:normal;font-size:26.8853px;font-family:'Alfa Slab One';-inkscape-font-specification:'Alfa Slab One';text-align:center;text-anchor:middle;fill:#ffffff;stroke-width:0.5041"
             x="97.949837"
             y="99.258842"
             id="text4-2"><tspan
               id="tspan4-9"
               style="fill:#ffffff;stroke-width:0.5041"
               x="97.949837"
               y="99.258842">SOY</tspan></text></g></g><path
         style="fill:#008000;stroke-width:0.264583"
         d="m 29.94647,79.590443 c -0.144432,0.03413 -0.433293,0.10238 -0.716398,0.302747 -0.283105,0.200367 -0.560417,0.532816 -0.670577,1.611275 -0.11016,1.078458 -0.05315,2.902827 -0.05315,3.90055 -1e-6,0.997722 -0.05701,1.168755 -0.280317,1.240023 -0.223306,0.07127 -0.612883,0.04276 -0.82668,-0.06176 -0.213798,-0.104525 -0.251807,-0.28506 -0.261309,-0.712663 -0.0095,-0.427602 0.0095,-1.102239 -0.10928,-1.572596 -0.118779,-0.470358 -0.375331,-0.73641 -0.608135,-0.864688 -0.232805,-0.128279 -0.441847,-0.118775 -0.622389,-0.02375 -0.180542,0.09502 -0.332573,0.27556 -0.446599,0.4466 -0.114026,0.17104 -0.190041,0.332573 -0.22805,0.912212 -0.03801,0.579638 -0.03801,1.577342 -0.04276,2.185479 -0.0048,0.608137 -0.01425,0.826682 0.08077,1.026228 0.09502,0.199546 0.294559,0.380078 0.532116,0.446595 0.237558,0.06652 0.513107,0.01901 0.845689,0.0048 0.332582,-0.01425 0.722149,0.0047 0.997718,0.05226 0.275569,0.04751 0.437098,0.123525 0.560627,0.218548 0.12353,0.09502 0.209048,0.209048 0.242306,0.802941 0.03326,0.593893 0.01425,1.667589 0.08077,2.308994 0.06652,0.641405 0.218548,0.850449 0.408593,1.016737 0.190044,0.166287 0.418089,0.289811 0.741164,0.356327 0.323076,0.06652 0.741163,0.07602 1.097495,0.04276 0.356332,-0.03326 0.650892,-0.109272 0.897949,-0.275561 0.247057,-0.166289 0.446598,-0.422842 0.536868,-0.831438 0.09027,-0.408596 0.07127,-0.969211 0.04276,-1.700883 -0.0285,-0.731672 -0.06651,-1.634338 -0.05701,-2.232982 0.0095,-0.598643 0.06651,-0.893196 0.280317,-1.059488 0.213804,-0.166291 0.584367,-0.204298 1.00247,-0.223302 0.418102,-0.019 0.883695,-0.019 1.187762,-0.08552 0.304068,-0.06651 0.446597,-0.199539 0.532118,-0.437096 0.08552,-0.237557 0.114027,-0.579625 0.137782,-1.197272 0.02376,-0.617647 0.04276,-1.510828 -0.03801,-2.095211 -0.08077,-0.584382 -0.261307,-0.859938 -0.513117,-0.99772 -0.251811,-0.137781 -0.574875,-0.137781 -0.840937,0.04276 -0.266061,0.180544 -0.475104,0.541617 -0.570124,0.888448 -0.09502,0.34683 -0.07602,0.679398 -0.06177,1.03098 0.01425,0.351582 0.02376,0.722158 -0.07602,0.931204 -0.09978,0.209047 -0.308811,0.256556 -0.484604,0.242302 -0.175793,-0.01425 -0.318321,-0.09027 -0.399088,-0.156782 -0.08077,-0.06651 -0.09977,-0.12353 -0.109273,-0.684165 -0.0095,-0.560634 -0.0095,-1.624852 -0.02376,-2.332763 -0.01425,-0.707911 -0.04276,-1.059481 -0.166289,-1.373054 -0.12353,-0.313572 -0.342076,-0.589129 -0.579631,-0.76967 -0.237556,-0.180541 -0.494109,-0.266058 -0.712659,-0.31357 -0.21855,-0.04751 -0.399086,-0.05701 -0.489355,-0.05226 -0.09027,0.0047 -0.09027,0.02375 -0.09092,0.02505 -6.5e-4,0.0013 -0.002,-0.01508 -0.0019,-0.02067 5.9e-5,-0.0056 0.0015,-2.94e-4 0.0029,0.005 0.0055,0 0.01092,0 0.01091,0.0055 -1.6e-5,0.0055 -0.0055,0.01637 -0.0055,0.01637 -7e-6,-9e-6 0.0054,-0.01091 0.01091,-0.02183 -2e-6,2e-6 -5e-6,4e-6 -0.144437,0.03413 z"
         id="path7"
         transform="matrix(1.0591955,0,0,1.0219704,64.858035,0.63131114)" /></g></g></svg>
